<svg fill="#eeeeec" height="200px" width="200px" version="1.1" id="Layer_1" xmlns="http://www.w3.org/2000/svg" xmlns:xlink="http://www.w3.org/1999/xlink" viewBox="0 0 512 512" xml:space="preserve" stroke="#eeeeec"><g id="SVGRepo_bgCarrier" stroke-width="0"></g><g id="SVGRepo_tracerCarrier" stroke-linecap="round" stroke-linejoin="round"></g><g id="SVGRepo_iconCarrier"> <g> <g> <path d="M180.318,301.143c-0.144-0.711-0.355-1.41-0.633-2.077c-0.278-0.677-0.623-1.322-1.023-1.921 c-0.41-0.611-0.877-1.177-1.388-1.688c-0.511-0.512-1.077-0.978-1.688-1.377c-0.6-0.4-1.244-0.744-1.91-1.022 c-0.677-0.278-1.377-0.489-2.077-0.633c-1.444-0.289-2.91-0.289-4.342,0c-0.711,0.144-1.411,0.355-2.077,0.633 c-0.677,0.278-1.32,0.622-1.92,1.022c-0.612,0.399-1.178,0.865-1.689,1.377c-0.511,0.511-0.977,1.077-1.377,1.688 c-0.399,0.6-0.744,1.244-1.022,1.921c-0.278,0.666-0.5,1.365-0.632,2.076c-0.145,0.712-0.222,1.445-0.222,2.166 c0,0.733,0.077,1.456,0.222,2.177c0.132,0.7,0.354,1.399,0.632,2.077c0.278,0.667,0.623,1.31,1.022,1.91 c0.4,0.612,0.866,1.178,1.377,1.689c0.511,0.511,1.077,0.977,1.689,1.388c0.6,0.4,1.243,0.744,1.92,1.022 c0.666,0.278,1.366,0.489,2.077,0.633c0.711,0.144,1.444,0.21,2.166,0.21c0.721,0,1.455-0.067,2.177-0.21 c0.7-0.144,1.399-0.355,2.077-0.633c0.666-0.278,1.31-0.622,1.91-1.022c0.611-0.411,1.177-0.877,1.688-1.388 c2.066-2.066,3.255-4.931,3.255-7.851C180.529,302.588,180.461,301.854,180.318,301.143z"></path> </g> </g> <g> <g> <path d="M508.747,135.77L395.669,22.692c-2.083-2.082-4.907-3.253-7.853-3.253s-5.77,1.17-7.853,3.253L355.377,47.28l-2.58-2.58 c-4.338-4.335-11.367-4.335-15.706,0l-75.925,75.925l-49.068,49.068L91.55,290.241c-4.288,4.288-4.329,11.205-0.139,15.553 l-38.221,54.775c-3.079,4.414-2.551,10.401,1.255,14.208l7.396,7.396L3.253,440.763c-2.767,2.767-3.874,6.789-2.912,10.582 c0.963,3.795,3.851,6.802,7.604,7.916l110.598,32.84c1.042,0.309,2.106,0.46,3.161,0.46c2.903,0,5.741-1.139,7.854-3.253 l19.71-19.711l7.396,7.396c2.15,2.149,4.993,3.253,7.856,3.253c2.209,0,4.43-0.657,6.352-1.998l54.775-38.221 c2.149,2.071,4.922,3.114,7.7,3.114c2.843,0,5.684-1.085,7.853-3.253L361.747,319.34l49.068-49.068l75.925-75.925 c4.337-4.337,4.337-11.368,0-15.706l-2.58-2.58l24.587-24.587C513.084,147.138,513.084,140.106,508.747,135.77z M269.018,144.183 l21.915,21.915l-33.362,33.362l-21.915-21.915L269.018,144.183z M118.526,468.928l-86.379-25.65l45.4-45.399l56.014,56.014 L118.526,468.928z M165.789,454.711l-8.66-8.66c-0.003-0.003-0.007-0.008-0.01-0.011L85.4,374.321 c-0.003-0.003-0.008-0.007-0.011-0.01l-8.66-8.66l30.629-43.896l102.327,102.327L165.789,454.711z M233.345,416.331 L115.109,298.094l104.842-104.842l21.915,21.915l-57.286,57.286c-4.337,4.337-4.337,11.368,0,15.706 c2.169,2.168,5.011,3.253,7.853,3.253c2.842,0,5.685-1.085,7.852-3.253l57.286-57.286l80.617,80.617L233.345,416.331z M353.894,295.783l-80.617-80.617l33.362-33.362l80.617,80.617L353.894,295.783z M402.962,246.714l-80.616-80.616l34.746-34.746 c4.337-4.337,4.337-11.368,0-15.706c-4.335-4.334-11.365-4.336-15.706,0l-34.746,34.746l-21.915-21.915l60.22-60.22l2.58,2.58 l113.077,113.077l2.58,2.58L402.962,246.714z M468.454,160.357l-97.372-97.372l16.734-16.734l97.372,97.373L468.454,160.357z"></path> </g> </g> </g></svg>
