<svg width="200" height="200" viewBox="0 0 200 200" xmlns="http://www.w3.org/2000/svg">
  <rect 
    x="8" y="8" width="184" height="184" rx="10"
    fill="none" 
    stroke="#eeeeec" 
    stroke-width="8" 
    stroke-linecap="round" 
    stroke-linejoin="round"
  />

  <g fill="#eeeeec">
    <rect x="25" y="25" width="60" height="60" rx="4" fill-opacity="0.9"/>
    <rect x="100" y="90" width="75" height="75" rx="6" fill-opacity="0.9"/>
    <rect x="40" y="120" width="50" height="50" rx="4" fill-opacity="0.9"/>
    
    <rect x="95" y="30" width="45" height="45" rx="3" fill-opacity="0.6"/>
    <rect x="145" y="40" width="35" height="35" rx="3" fill-opacity="0.6"/>
    <rect x="90" y="140" width="40" height="40" rx="3" fill-opacity="0.6"/>
    <rect x="25" y="95" width="40" height="40" rx="3" fill-opacity="0.6"/>
    
    <rect x="70" y="85" width="25" height="25" rx="2" fill-opacity="0.3"/>
    <rect x="145" y="85" width="20" height="20" rx="2" fill-opacity="0.3"/>
    <rect x="105" y="75" width="25" height="25" rx="2" fill-opacity="0.3"/>
    <rect x="50" y="105" width="20" height="20" rx="2" fill-opacity="0.3"/>
    <rect x="135" y="150" width="20" height="20" rx="2" fill-opacity="0.3"/>
    <rect x="165" y="120" width="15" height="15" rx="2" fill-opacity="0.3"/>
    <rect x="25" y="155" width="20" height="20" rx="2" fill-opacity="0.3"/>
    <rect x="85" y="115" width="15" height="15" rx="2" fill-opacity="0.3"/>
  </g>
</svg>
