<svg width="200" height="200" viewBox="0 0 200 200" xmlns="http://www.w3.org/2000/svg">
  <g fill="currentColor">
    
    <rect x="15" y="15" width="60" height="60" rx="4" fill-opacity="0.9"/>
    <rect x="110" y="90" width="75" height="75" rx="6" fill-opacity="0.9"/>
    <rect x="30" y="130" width="50" height="50" rx="4" fill-opacity="0.9"/>
    
    <rect x="90" y="20" width="45" height="45" rx="3" fill-opacity="0.6"/>
    <rect x="150" y="30" width="35" height="35" rx="3" fill-opacity="0.6"/>
    <rect x="80" y="145" width="40" height="40" rx="3" fill-opacity="0.6"/>
    <rect x="15" y="90" width="40" height="40" rx="3" fill-opacity="0.6"/>
    
    <rect x="60" y="85" width="25" height="25" rx="2" fill-opacity="0.3"/>
    <rect x="145" y="70" width="20" height="20" rx="2" fill-opacity="0.3"/>
    <rect x="100" y="75" width="25" height="25" rx="2" fill-opacity="0.3"/>
    <rect x="40" y="105" width="20" height="20" rx="2" fill-opacity="0.3"/>
    <rect x="135" y="155" width="20" height="20" rx="2" fill-opacity="0.3"/>
    <rect x="170" y="125" width="15" height="15" rx="2" fill-opacity="0.3"/>
    <rect x="15" y="160" width="20" height="20" rx="2" fill-opacity="0.3"/>
    <rect x="80" y="110" width="15" height="15" rx="2" fill-opacity="0.3"/>
  
  </g>
</svg>
