<svg width="16" height="16" viewBox="0 0 16 16" xmlns="http://www.w3.org/2000/svg">
  <rect x="0" y="0" width="16" height="16" fill="currentColor" fill-opacity="0.1" rx="1"/>

  <path fill="currentColor" d="M 0 0 h 3 v 3 H 0 V 0 Z m 4 0 h 2 v 2 H 4 V 0 Z m 3 0 h 6 v 6 H 7 V 0 Z m 7 0 h 2 v 2 H 14 V 0 Z M 0 4 h 2 v 2 H 0 V 4 Z m 3 4 h 3 v 3 H 3 V 8 Z m 0 8 h 3 v 3 H 3 v -3 Z M 7 7 h 6 v 6 H 7 V 7 Z m 0 7 h 6 v 2 H 7 v -2 Z m 7 7 h 2 v 9 H 14 V 7 Z M 0 14 h 6 v 2 H 0 v -2 Z m 14 0 h 2 v 2 H 14 v -2 Z"/>
</svg>
